<?xml version="1.0" encoding="UTF-8" standalone="no"?>
<!DOCTYPE svg PUBLIC "-//W3C//DTD SVG 1.1//EN"
 "http://www.w3.org/Graphics/SVG/1.1/DTD/svg11.dtd">
<!-- Generated by graphviz version 2.26.3 (20100126.1600)
 -->
<!-- Title: G Pages: 1 -->
<svg width="456pt" height="314pt"
 viewBox="0.00 0.00 456.00 314.00" xmlns="http://www.w3.org/2000/svg" xmlns:xlink="http://www.w3.org/1999/xlink">
<g id="graph1" class="graph" transform="scale(1 1) rotate(0) translate(4 310)">
<title>G</title>
<polygon fill="white" stroke="white" points="-4,5 -4,-310 453,-310 453,5 -4,5"/>
<g id="graph2" class="cluster"><title>cluster_global</title>
<polyline fill="none" stroke="gray" points="270,-8 428,-8 "/>
<path fill="none" stroke="gray" d="M428,-8C434,-8 440,-14 440,-20"/>
<polyline fill="none" stroke="gray" points="440,-20 440,-286 "/>
<path fill="none" stroke="gray" d="M440,-286C440,-292 434,-298 428,-298"/>
<polyline fill="none" stroke="gray" points="428,-298 270,-298 "/>
<path fill="none" stroke="gray" d="M270,-298C264,-298 258,-292 258,-286"/>
<polyline fill="none" stroke="gray" points="258,-286 258,-20 "/>
<path fill="none" stroke="gray" d="M258,-20C258,-14 264,-8 270,-8"/>
<text text-anchor="middle" x="349" y="-284.1" font-family="Times Roman,serif" font-size="11.00" fill="gray">global</text>
</g>
<!-- \\Classes_Profile -->
<g id="node2" class="node"><title>\\Classes_Profile</title>
<a xlink:href="classes.Profile.html" xlink:title="Classes_Profile" target="_parent">
<polygon fill="none" stroke="black" points="408,-268 290,-268 290,-232 408,-232 408,-268"/>
<text text-anchor="middle" x="349" y="-247.1" font-family="Courier,monospace" font-size="11.00">Classes_Profile</text>
</a>
</g>
<!-- \\Classes_WebidAuth -->
<g id="node3" class="node"><title>\\Classes_WebidAuth</title>
<a xlink:href="classes.WebidAuth.html" xlink:title="Classes_WebidAuth" target="_parent">
<polygon fill="none" stroke="black" points="414,-214 284,-214 284,-178 414,-178 414,-214"/>
<text text-anchor="middle" x="349" y="-193.1" font-family="Courier,monospace" font-size="11.00">Classes_WebidAuth</text>
</a>
</g>
<!-- \\Classes_Wall -->
<g id="node4" class="node"><title>\\Classes_Wall</title>
<a xlink:href="classes.Wall.html" xlink:title="Classes_Wall" target="_parent">
<polygon fill="none" stroke="black" points="398,-160 300,-160 300,-124 398,-124 398,-160"/>
<text text-anchor="middle" x="349" y="-139.1" font-family="Courier,monospace" font-size="11.00">Classes_Wall</text>
</a>
</g>
<!-- \\Controllers_Profile -->
<g id="node5" class="node"><title>\\Controllers_Profile</title>
<a xlink:href="controllers.Profile.html" xlink:title="Controllers_Profile" target="_parent">
<polygon fill="none" stroke="black" points="421,-106 277,-106 277,-70 421,-70 421,-106"/>
<text text-anchor="middle" x="349" y="-85.1" font-family="Courier,monospace" font-size="11.00">Controllers_Profile</text>
</a>
</g>
<!-- \\Middleware_ContentType -->
<g id="node6" class="node"><title>\\Middleware_ContentType</title>
<a xlink:href="middleware.ContentType.html" xlink:title="Middleware_ContentType" target="_parent">
<polygon fill="none" stroke="black" points="431,-52 267,-52 267,-16 431,-16 431,-52"/>
<text text-anchor="middle" x="349" y="-31.1" font-family="Courier,monospace" font-size="11.00">Middleware_ContentType</text>
</a>
</g>
<!-- \\Slim_Middleware -->
<g id="node8" class="node"><title>\\Slim_Middleware</title>
<ellipse fill="none" stroke="black" cx="97" cy="-34" rx="96.8736" ry="18.3848"/>
<text text-anchor="middle" x="97" y="-30.4" font-family="Times Roman,serif" font-size="14.00" fill="gray">\Slim_Middleware</text>
</g>
<!-- \\Middleware_ContentType&#45;&gt;\\Slim_Middleware -->
<g id="edge3" class="edge"><title>\\Middleware_ContentType&#45;&gt;\\Slim_Middleware</title>
<path fill="none" stroke="black" d="M266.486,-34C246.625,-34 225.122,-34 204.314,-34"/>
<polygon fill="none" stroke="black" points="204.165,-30.5001 194.165,-34 204.165,-37.5001 204.165,-30.5001"/>
</g>
</g>
</svg>
